<?xml version="1.0" standalone="no"?>
<!DOCTYPE svg PUBLIC "-//W3C//DTD SVG 20010904//EN"
 "http://www.w3.org/TR/2001/REC-SVG-20010904/DTD/svg10.dtd">
<svg version="1.0" xmlns="http://www.w3.org/2000/svg"
 width="256.000000pt" height="256.000000pt" viewBox="0 0 256.000000 256.000000"
 preserveAspectRatio="xMidYMid meet">

<g transform="translate(0.000000,256.000000) scale(0.100000,-0.100000)"
fill="#000000" stroke="none">
<path d="M1170 2336 c-6 -8 -24 -16 -38 -18 -25 -3 -27 -7 -30 -52 -2 -36 0
-47 10 -44 8 3 12 18 10 41 -3 25 1 37 10 39 7 0 34 2 61 3 26 2 54 8 62 15
12 10 15 10 15 -3 0 -25 -27 -42 -45 -27 -10 9 -15 9 -15 1 0 -6 -13 -11 -29
-11 -17 0 -33 -5 -36 -10 -9 -14 44 -33 59 -21 6 5 28 12 49 16 30 6 37 11 37
31 0 15 6 24 16 24 12 0 15 -7 12 -25 -4 -17 -1 -25 9 -25 9 0 13 6 10 14 -7
17 11 36 35 36 24 0 23 -31 -2 -37 -11 -3 -17 -9 -14 -14 8 -14 44 -11 44 4 0
7 9 18 20 24 17 11 21 10 31 -10 7 -12 18 -26 25 -30 16 -9 19 -37 3 -37 -5 0
-15 14 -20 30 -11 31 -34 43 -25 13 3 -10 8 -30 12 -45 3 -16 10 -25 16 -22 5
3 17 -1 27 -10 24 -22 27 -138 6 -170 -19 -26 -19 -31 0 -50 16 -16 17 -15
-77 -103 -19 -17 -52 -10 -46 10 3 6 13 17 24 22 10 6 19 17 19 25 0 8 10 19
22 25 22 9 38 48 28 66 -4 5 -28 -8 -54 -30 -39 -33 -56 -40 -103 -44 -54 -4
-58 -3 -93 30 -34 32 -39 34 -61 22 -21 -11 -27 -10 -41 4 -14 13 -14 18 -3
32 8 9 22 14 32 12 12 -3 18 0 18 11 0 8 7 24 17 34 9 10 14 19 12 21 -2 1
-17 13 -32 27 -24 21 -30 22 -37 10 -14 -21 -12 -30 5 -30 18 0 20 -31 3 -48
-19 -19 -28 -14 -28 13 0 25 -23 35 -35 15 -4 -7 -12 -7 -24 0 -26 13 -34 0
-15 -22 16 -17 18 -17 30 0 12 16 13 16 19 0 12 -29 -2 -48 -35 -48 -34 0 -38
-7 -12 -26 14 -10 15 -15 4 -26 -11 -11 -14 -10 -22 2 -5 8 -12 11 -16 8 -10
-11 22 -38 46 -38 29 0 60 -18 60 -35 0 -8 -9 -30 -20 -50 -11 -20 -20 -42
-20 -50 0 -8 -5 -15 -11 -15 -7 0 -9 -10 -5 -25 8 -30 -17 -35 -33 -7 -9 16
-11 16 -25 -3 -20 -26 -20 -35 2 -35 16 -1 16 -1 0 -14 -10 -7 -18 -24 -18
-38 0 -37 -11 -41 -32 -11 -23 36 -23 43 2 43 24 0 26 13 5 30 -20 16 -19 30
1 30 12 0 14 7 9 32 -6 26 -5 30 10 25 9 -4 19 -7 21 -7 2 0 4 -7 4 -15 0 -15
25 -21 33 -7 17 29 15 59 -4 71 -27 16 -36 7 -15 -15 13 -12 14 -20 6 -28 -8
-8 -17 -4 -32 14 -14 16 -22 21 -25 13 -6 -18 -23 -16 -23 1 0 13 -55 76 -66
76 -2 0 -4 -8 -4 -19 0 -10 -14 -33 -31 -50 -17 -18 -28 -35 -25 -38 3 -4 14
4 25 15 10 12 21 22 25 22 9 0 7 -28 -4 -50 -5 -11 -15 -29 -20 -40 -12 -24
-11 -170 1 -170 5 0 9 7 9 15 0 8 5 15 10 15 6 0 10 -9 10 -19 0 -11 -4 -23
-10 -26 -15 -9 -12 -27 11 -55 20 -24 21 -24 16 -2 -3 14 0 22 9 22 17 0 19
27 2 32 -6 2 -8 10 -4 16 12 19 46 -5 46 -32 0 -13 -9 -31 -20 -41 -31 -28
-26 -55 10 -55 22 0 30 5 30 18 0 10 6 24 12 30 10 10 10 17 0 33 -17 26 -7
38 14 18 24 -25 9 -92 -25 -107 -26 -11 -27 -14 -23 -84 3 -40 8 -74 13 -76
12 -5 11 -129 -1 -137 -5 -3 -10 -28 -10 -56 0 -48 -1 -49 -30 -49 -32 0 -37
-9 -19 -27 9 -9 16 -9 29 0 14 8 22 8 34 -2 13 -11 19 -11 31 -1 21 17 19 30
-5 30 -11 0 -20 1 -20 3 0 1 7 40 15 87 9 47 18 113 22 148 5 58 4 62 -14 62
-24 0 -37 34 -19 50 7 5 16 7 19 3 4 -3 10 3 14 13 3 10 16 27 27 37 15 13 17
20 8 29 -14 14 -16 48 -3 48 23 0 59 -79 65 -141 3 -35 8 -89 12 -121 5 -49 3
-59 -16 -78 -13 -13 -20 -29 -17 -41 3 -12 0 -19 -9 -19 -15 0 -30 -43 -20
-58 3 -5 -1 -15 -9 -22 -8 -7 -15 -21 -15 -31 0 -20 -57 -62 -75 -55 -5 2 -9
11 -9 20 2 12 -3 15 -18 10 -13 -4 -25 1 -37 15 l-19 21 -16 -25 c-9 -13 -16
-32 -16 -42 0 -10 -9 -24 -20 -31 -11 -7 -20 -17 -20 -23 0 -6 -9 -22 -20 -36
-15 -20 -17 -29 -9 -39 16 -19 4 -44 -21 -44 -27 0 -25 -22 5 -50 16 -15 22
-27 16 -33 -13 -13 18 -73 52 -106 14 -13 40 -26 58 -30 18 -3 36 -14 41 -24
27 -57 -6 -52 388 -55 359 -2 364 -2 386 19 13 12 24 33 26 48 2 22 7 25 30
23 20 -3 32 5 55 35 15 21 31 40 36 41 4 2 7 16 7 32 0 15 6 33 14 39 14 12
10 61 -5 61 -5 0 -9 -12 -9 -27 0 -19 -3 -24 -9 -15 -4 7 -4 36 1 63 9 50 9
51 -31 95 -43 46 -49 59 -28 68 10 5 10 7 0 12 -7 3 -13 12 -13 19 0 20 -21
30 -31 14 -13 -20 -11 -29 5 -29 21 0 30 -19 12 -26 -17 -6 -85 51 -73 62 3 4
13 1 22 -6 18 -15 30 -7 22 15 -6 14 -30 20 -69 17 -23 -2 -23 17 -1 33 14 11
15 17 4 42 -12 30 -6 103 8 103 4 0 5 29 3 64 -2 35 1 79 7 98 13 39 14 53 4
53 -19 1 -53 27 -47 36 3 6 -2 16 -12 23 -17 13 -17 15 -1 40 29 43 51 29 25
-15 -10 -17 -10 -23 0 -26 6 -3 12 -13 12 -24 0 -40 79 -10 80 31 0 11 -3 11
-12 2 -9 -9 -16 -8 -30 5 -24 21 -23 60 2 73 15 8 20 8 20 -3 0 -7 -5 -18 -12
-25 -9 -9 -9 -15 0 -24 9 -9 12 -9 12 0 0 16 27 15 33 0 7 -18 36 21 37 49 0
12 4 24 9 27 18 11 2 110 -24 150 -9 14 -16 26 -15 28 1 2 -2 11 -5 20 -12 31
-1 40 22 18 l23 -20 37 41 c21 23 57 61 81 85 23 23 42 45 42 48 0 10 -52 57
-58 52 -3 -4 1 -17 8 -31 12 -23 11 -28 -10 -50 -13 -14 -26 -25 -29 -25 -4 0
-15 16 -25 35 -19 35 -47 52 -66 40 -15 -9 -12 -25 4 -25 8 0 16 -7 20 -15 4
-10 -1 -15 -16 -15 -17 0 -18 -2 -8 -15 9 -10 9 -15 1 -15 -15 0 -14 -37 2
-43 6 -2 24 7 40 21 18 18 27 21 27 11 0 -8 -13 -26 -29 -42 -27 -25 -31 -26
-46 -11 -9 10 -21 28 -26 42 l-10 25 -29 -34 c-16 -19 -29 -40 -30 -46 0 -15
-20 -18 -20 -3 0 18 -18 11 -25 -10 -3 -11 -15 -20 -26 -20 -10 0 -19 -7 -19
-15 0 -22 23 -18 38 5 16 27 35 15 28 -16 -5 -17 -2 -24 9 -24 17 0 21 -25 5
-35 -18 -11 -11 -27 10 -22 24 6 25 -5 4 -39 -15 -22 -15 -24 0 -18 22 9 21
-19 -2 -39 -20 -19 -42 -22 -42 -8 0 6 5 13 10 16 8 5 7 11 0 20 -7 8 -9 23
-5 34 7 24 -22 43 -55 34 -17 -4 -21 -2 -18 8 3 9 17 13 37 11 35 -2 39 7 14
30 -20 18 -65 17 -71 0 -5 -15 -32 -16 -32 -2 0 6 7 13 15 16 8 4 15 15 15 25
0 25 -8 24 -30 -3 -15 -19 -20 -21 -34 -9 -16 13 -14 16 15 28 29 12 31 16 27
50 -6 49 6 83 31 83 49 0 141 73 107 86 -8 3 -12 13 -9 24 3 11 2 31 -1 45 -6
22 -9 24 -27 14 -20 -10 -20 -11 -2 -25 17 -13 17 -15 -10 -39 -15 -14 -35
-25 -43 -25 -8 0 -14 -6 -13 -12 3 -18 -11 -48 -22 -48 -14 0 -10 42 6 59 48
53 55 62 55 71 0 16 -20 12 -26 -5 -9 -22 -24 -18 -24 6 0 12 14 37 31 56 29
33 31 34 36 14 7 -27 28 -12 37 25 5 19 12 25 24 21 107 -35 113 -39 96 -58
-9 -11 -23 -19 -29 -19 -18 0 -28 -32 -13 -41 9 -6 6 -14 -11 -33 -14 -14 -21
-29 -18 -32 10 -10 -53 -77 -85 -91 -28 -12 -34 -23 -21 -36 3 -4 14 0 24 9
10 9 19 11 23 5 4 -5 2 -12 -4 -16 -15 -10 -12 -25 6 -25 15 0 104 87 104 102
0 20 -23 4 -48 -32 -15 -21 -31 -38 -37 -36 -14 4 -19 36 -5 36 6 0 23 14 38
32 39 45 75 108 63 108 -21 0 -10 25 16 38 18 8 30 9 37 2 13 -13 36 -13 36 0
0 6 -8 10 -18 10 -10 0 -23 13 -31 31 -23 53 -140 86 -162 46 -6 -9 -21 -17
-34 -17 -13 0 -28 -7 -32 -15 -7 -13 -13 -10 -32 16 -12 16 -21 36 -18 43 3 6
-1 20 -9 31 -8 10 -14 27 -14 37 0 13 -10 20 -30 25 -16 3 -30 9 -30 14 0 5
-53 9 -119 9 -91 0 -121 -3 -131 -14z m450 -332 c0 -9 -9 -18 -20 -21 -11 -3
-20 -9 -20 -14 0 -5 -7 -9 -15 -9 -21 0 -19 11 8 37 26 26 47 29 47 7z m-542
-21 c-4 -22 -22 -20 -26 1 -2 10 3 16 13 16 10 0 15 -7 13 -17z m109 -43 c10
0 14 -6 10 -20 -5 -20 -5 -20 71 -36 16 -3 22 -11 22 -29 0 -29 -6 -31 -27
-10 -8 9 -23 13 -33 10 -13 -4 -24 2 -36 20 -13 20 -20 23 -30 14 -11 -9 -15
-7 -20 7 -3 11 -10 27 -15 36 -12 24 -12 26 9 30 9 2 21 -2 25 -9 4 -7 15 -13
24 -13z m163 -60 c11 -7 12 -14 4 -27 -18 -30 -34 -27 -34 6 0 33 6 37 30 21z
m-210 -25 c0 -9 -8 -19 -17 -22 -10 -4 -21 -11 -25 -17 -4 -6 -10 -8 -13 -4
-7 7 34 58 47 58 4 0 8 -7 8 -15z m350 -11 c0 -8 -4 -14 -10 -14 -5 0 -10 9
-10 21 0 11 5 17 10 14 6 -3 10 -13 10 -21z m-575 -73 c-9 -11 -11 -21 -5 -31
14 -22 12 -30 -6 -23 -14 5 -16 2 -10 -21 6 -25 5 -26 -14 -16 -11 6 -20 17
-20 25 0 7 -6 15 -12 18 -7 2 -10 8 -6 12 4 4 14 2 23 -5 13 -10 15 -9 15 8 0
12 -4 24 -10 27 -18 11 -10 26 10 20 14 -5 20 -2 20 9 0 9 -4 16 -10 16 -5 0
-10 8 -10 18 0 35 14 33 32 -4 16 -33 16 -39 3 -53z m270 70 c6 -10 -21 -41
-36 -41 -15 0 -10 22 9 36 21 16 20 16 27 5z m260 -9 c0 -18 -20 -15 -23 4 -3
10 1 15 10 12 7 -3 13 -10 13 -16z m245 -27 c-6 -8 -9 -19 -5 -25 3 -5 -1 -10
-9 -10 -20 0 -20 9 1 51 13 26 18 30 21 16 2 -10 -2 -24 -8 -32z m-447 19 c8
-8 -44 -65 -54 -58 -13 8 -11 17 9 42 17 22 33 27 45 16z m180 -28 c15 -14 22
-28 17 -31 -6 -3 -17 1 -26 9 -8 9 -20 16 -25 16 -5 0 -9 7 -9 15 0 21 13 19
43 -9z m-133 3 c0 -11 -46 -59 -56 -59 -11 0 -2 35 13 52 18 20 43 24 43 7z
m80 -14 c13 -14 29 -25 37 -25 7 0 21 -9 30 -20 13 -15 20 -17 30 -8 7 6 17 8
20 4 4 -4 1 -11 -7 -16 -12 -7 -11 -12 4 -29 10 -11 15 -25 11 -30 -11 -18
-22 -12 -29 14 -10 40 -32 31 -32 -12 1 -21 4 -43 9 -50 4 -6 3 -15 -3 -18 -6
-4 -8 -15 -5 -26 4 -11 2 -19 -4 -19 -6 0 -11 -9 -11 -20 0 -11 5 -20 10 -20
6 0 10 -7 10 -16 0 -9 -7 -14 -17 -12 -14 3 -18 13 -18 43 0 33 -4 42 -27 53
-16 7 -28 17 -28 23 0 5 -5 9 -12 9 -6 0 -19 7 -29 16 -17 15 -21 13 -59 -26
-31 -31 -38 -45 -29 -51 10 -6 10 -11 -1 -24 -12 -14 -12 -18 0 -25 12 -7 12
-13 0 -35 -14 -26 -38 -29 -31 -4 8 26 6 74 -2 86 -12 17 2 54 19 51 7 -2 22
13 32 32 11 20 36 43 58 55 22 11 41 21 44 23 6 4 -22 22 -34 22 -12 0 -106
-98 -106 -111 0 -5 -6 -9 -14 -9 -7 0 -19 -7 -27 -16 -10 -13 -10 -17 1 -24
22 -14 3 -40 -30 -40 -23 0 -30 4 -30 20 0 25 9 25 26 3 9 -12 13 -14 14 -5 0
21 -27 43 -44 36 -10 -4 -16 -1 -16 9 0 11 12 17 37 19 30 2 42 10 58 35 11
18 28 32 38 33 9 0 17 7 17 15 0 8 21 30 48 50 26 20 48 41 48 46 1 5 2 11 3
14 3 11 19 3 41 -20z m-254 -10 c-3 -10 -15 -15 -28 -13 -29 4 -26 21 4 29 28
7 32 4 24 -16z m599 -11 c-11 -8 -15 -20 -11 -30 5 -13 9 -14 21 -4 21 18 29
6 13 -19 -11 -18 -11 -23 2 -31 11 -7 12 -14 4 -27 -16 -27 -38 -30 -31 -4 3
11 1 24 -4 27 -5 3 -9 14 -9 25 0 10 -4 19 -10 19 -15 0 -12 17 6 45 9 14 21
22 27 18 6 -4 3 -11 -8 -19z m-565 -26 c-11 -10 -24 -18 -30 -18 -6 0 -20 -9
-32 -20 -12 -11 -24 -17 -27 -14 -3 4 0 9 7 11 6 3 12 11 12 19 0 8 4 14 8 14
5 0 22 11 38 25 33 28 56 12 24 -17z m60 -7 c0 -19 -13 -41 -23 -41 -6 0 -21
-12 -33 -27 -18 -23 -24 -25 -37 -15 -12 10 -16 10 -21 -3 -3 -9 -11 -13 -18
-9 -13 8 25 44 48 44 7 0 23 14 36 30 21 29 48 40 48 21z m-170 -45 c0 -12 5
-27 12 -34 9 -9 9 -12 1 -12 -7 0 -15 5 -19 11 -10 16 -28 -6 -21 -25 4 -9 16
-16 27 -16 29 0 25 -13 -11 -29 -34 -15 -48 -9 -29 14 10 13 9 15 -8 15 -11 0
-22 -5 -24 -10 -4 -14 -56 10 -63 29 -11 28 12 32 33 6 l21 -27 25 29 c16 18
25 40 26 62 0 29 2 32 15 21 8 -7 15 -22 15 -34z m490 9 c0 -8 -4 -15 -10 -15
-5 0 -10 7 -10 15 0 8 5 15 10 15 6 0 10 -7 10 -15z m-656 -38 c15 -24 -2 -34
-19 -11 -8 10 -15 23 -15 27 0 13 22 3 34 -16z m718 -7 l30 -30 -24 -9 c-20
-8 -21 -10 -6 -16 22 -9 14 -25 -12 -25 -25 0 -34 30 -14 45 11 7 13 14 7 18
-6 4 -19 -5 -29 -18 -10 -14 -29 -25 -41 -25 -28 0 -29 -8 -5 -26 16 -12 16
-13 -4 -14 -18 0 -23 7 -27 38 -5 43 4 59 23 37 14 -17 40 -20 40 -6 0 6 -5
13 -11 17 -8 4 -4 13 12 25 13 10 25 19 27 19 2 0 17 -14 34 -30z m154 -66
c-4 -12 -10 -14 -17 -7 -5 5 -7 17 -3 27 4 12 10 14 17 7 5 -5 7 -17 3 -27z
m-420 6 c8 0 14 -2 14 -4 0 -2 3 -11 6 -20 4 -11 1 -16 -10 -16 -22 0 -20 -21
3 -27 21 -5 48 -49 37 -60 -4 -5 -21 9 -38 30 -24 30 -33 35 -44 26 -8 -6 -11
-21 -8 -33 3 -14 -2 -28 -15 -40 -18 -16 -21 -17 -21 -3 0 8 6 17 13 20 9 3 9
7 1 18 -7 8 -11 32 -10 54 1 31 6 42 24 50 12 5 22 14 23 20 0 5 3 4 6 -2 2
-7 11 -13 19 -13z m234 -49 c0 -16 5 -31 12 -33 6 -2 8 -10 4 -17 -13 -20 -59
33 -51 58 10 32 35 26 35 -8z m-475 -2 c5 -5 -1 -9 -17 -9 -14 0 -29 7 -32 16
-5 12 -1 14 17 9 12 -4 26 -11 32 -16z m300 1 c3 -5 -1 -10 -9 -10 -9 0 -16 5
-16 10 0 6 4 10 9 10 6 0 13 -4 16 -10z m95 -25 c7 -9 21 -13 31 -10 13 4 19
1 19 -8 0 -9 3 -17 8 -20 4 -2 0 -2 -8 1 -8 2 -22 6 -30 7 -29 4 -50 17 -50
31 0 18 14 18 30 -1z m-315 -26 c0 -10 -11 -13 -40 -11 -45 4 -50 7 -41 21 10
15 81 6 81 -10z m184 -35 c13 -29 6 -47 -10 -24 -8 13 -12 12 -24 -4 -22 -29
-28 -14 -9 22 19 39 27 40 43 6z m125 -26 c9 -17 16 -37 16 -45 0 -7 5 -13 11
-13 6 0 9 16 8 40 -2 21 0 42 3 46 9 9 56 -46 64 -74 5 -17 9 -20 19 -12 9 7
15 7 19 1 4 -5 2 -12 -4 -16 -5 -3 -10 -24 -10 -45 0 -21 -4 -42 -10 -45 -17
-11 -11 -27 8 -21 16 6 18 -1 17 -71 0 -43 -5 -86 -9 -96 -6 -13 -2 -25 15
-43 18 -20 21 -29 13 -42 -15 -24 -36 -21 -50 6 -6 13 -17 29 -23 35 -6 6 -11
26 -11 43 0 18 -4 36 -10 39 -5 3 -10 15 -10 26 0 10 -4 19 -10 19 -5 0 -10 8
-10 19 0 28 -26 47 -45 31 -9 -8 -15 -9 -15 -2 0 6 5 14 10 17 6 3 10 22 10
41 0 19 -4 34 -10 34 -5 0 -11 -4 -11 -10 -1 -5 -2 -14 -3 -19 0 -6 -7 -16
-13 -22 -15 -15 -17 -49 -3 -49 6 0 10 -13 10 -30 0 -18 7 -33 19 -39 16 -9
17 -7 13 14 -2 14 0 25 6 25 12 0 32 -61 32 -98 0 -30 -24 -24 -28 7 l-4 23
-15 -21 c-14 -20 -13 -24 9 -42 12 -12 22 -27 20 -35 -2 -8 2 -14 8 -14 5 0
10 7 10 15 0 22 17 18 23 -5 3 -13 10 -18 21 -14 10 4 16 1 16 -7 0 -11 -16
-13 -67 -11 -38 2 -80 3 -95 3 -24 0 -28 4 -28 30 0 22 5 29 20 29 11 0 20 6
20 14 0 9 -7 12 -20 9 -25 -7 -26 5 -3 23 28 19 6 30 -25 12 -23 -14 -28 -25
-32 -70 -3 -34 -10 -53 -17 -52 -7 1 -22 2 -33 3 -14 1 -20 8 -20 25 0 14 -4
28 -10 31 -5 3 -15 16 -21 27 -10 18 -9 20 5 15 20 -8 31 10 16 28 -8 9 -10
29 -6 52 15 93 19 156 7 149 -6 -4 -11 -23 -11 -42 0 -53 -14 -40 -29 26 -18
79 -31 85 -31 16 0 -37 7 -67 21 -92 16 -30 18 -39 7 -45 -10 -7 -11 -12 0
-29 17 -28 15 -43 -6 -38 -11 3 -23 -2 -30 -13 -16 -25 -15 -32 2 -26 15 6 46
-26 46 -47 0 -8 6 -16 13 -19 6 -2 9 -8 5 -12 -11 -12 -39 3 -45 25 -8 29 -19
25 -32 -10 -5 -16 -15 -30 -20 -30 -6 0 -11 -9 -11 -20 0 -31 -14 -24 -45 20
-21 30 -31 37 -40 30 -9 -8 -15 -6 -19 7 -5 12 1 25 18 40 14 12 26 29 26 37
0 8 5 18 10 21 6 3 10 19 10 36 0 16 5 29 10 29 19 0 11 -75 -11 -98 -23 -25
-19 -50 10 -76 18 -17 20 -17 40 3 12 12 21 26 21 31 0 17 -28 11 -33 -7 -4
-17 -4 -17 -12 1 -5 11 -3 21 5 26 10 6 11 39 6 151 -4 79 -7 152 -7 161 0 9
-7 19 -15 22 -8 3 -14 19 -14 36 0 27 3 30 30 30 17 0 37 -9 49 -21 16 -18 22
-19 40 -7 18 11 23 11 31 -2 5 -8 6 -27 3 -42 -6 -32 4 -36 22 -11 11 15 17
15 39 5 24 -11 26 -10 26 13 0 18 5 25 20 25 16 0 20 -7 20 -30 0 -16 5 -30
10 -30 14 0 13 43 -1 57 -9 9 -4 18 17 37 38 33 49 32 68 -6z m96 22 c0 -5 -4
-10 -10 -10 -5 0 -10 5 -10 10 0 6 5 10 10 10 6 0 10 -4 10 -10z m70 -40 c0
-5 -4 -10 -10 -10 -5 0 -10 5 -10 10 0 6 5 10 10 10 6 0 10 -4 10 -10z m-670
-100 c0 -11 -4 -20 -10 -20 -5 0 -10 9 -10 20 0 11 5 20 10 20 6 0 10 -9 10
-20z m-110 -331 c0 -5 -4 -9 -10 -9 -5 0 -10 7 -10 16 0 8 5 12 10 9 6 -3 10
-10 10 -16z m820 -24 c0 -8 -4 -15 -10 -15 -5 0 -10 7 -10 15 0 8 5 15 10 15
6 0 10 -7 10 -15z m-780 -5 c0 -5 -2 -10 -4 -10 -3 0 -8 5 -11 10 -3 6 -1 10
4 10 6 0 11 -4 11 -10z m228 -50 c15 0 15 -5 0 -30 -10 -15 -10 -29 0 -65 15
-55 15 -65 2 -65 -5 0 -10 7 -10 15 0 8 -5 15 -11 15 -18 0 -2 -50 31 -98 36
-51 39 -70 8 -50 -16 11 -32 12 -53 6 -16 -4 -68 -9 -115 -11 -47 -1 -91 -6
-98 -10 -15 -10 -42 15 -42 40 0 11 -5 24 -12 31 -6 6 -9 14 -5 18 9 10 27 -6
38 -32 l9 -25 22 21 c23 21 58 27 58 10 0 -5 18 -10 39 -10 22 0 43 -4 46 -10
7 -12 45 -14 45 -2 0 4 -20 19 -43 33 -34 20 -48 24 -62 17 -13 -8 -20 -7 -27
6 -11 20 -38 21 -38 1 0 -22 -23 -18 -38 6 -10 15 -11 24 -3 32 13 13 15 84 2
92 -11 6 -9 44 5 66 17 28 53 46 84 41 44 -6 37 -22 -11 -22 -29 0 -39 -4 -35
-12 3 -7 9 -21 12 -30 4 -10 10 -18 15 -18 5 0 9 -12 9 -27 1 -34 21 -63 44
-63 20 0 21 14 1 30 -17 14 -45 67 -45 85 0 7 8 15 18 18 9 4 35 17 57 30 l40
24 26 -28 c14 -16 31 -29 37 -29z m67 40 c-20 -22 -31 -20 -22 5 4 8 14 15 23
15 16 0 16 -2 -1 -20z m-320 -10 c-3 -5 -15 -10 -26 -10 -10 0 -19 5 -19 10 0
6 12 10 26 10 14 0 23 -4 19 -10z m524 -5 c10 -5 16 -4 19 3 4 14 92 16 92 3
0 -5 -6 -12 -12 -15 -10 -5 -10 -7 0 -12 6 -3 12 -14 12 -25 0 -10 5 -19 10
-19 6 0 10 9 10 20 0 21 14 27 24 11 4 -5 18 -5 36 2 24 9 35 8 67 -9 32 -17
38 -25 41 -57 2 -28 0 -37 -13 -37 -8 0 -18 8 -22 18 -7 21 -43 62 -55 62 -4
0 -8 -10 -8 -21 0 -12 -8 -28 -17 -35 -10 -7 -15 -16 -10 -20 4 -4 21 6 38 22
l32 29 -7 -37 c-7 -38 -7 -38 27 -38 22 0 37 -6 41 -15 14 -36 26 -11 23 50
-2 71 16 93 21 25 4 -49 22 -53 22 -5 0 19 5 35 10 35 6 0 10 -40 10 -100 0
-55 -4 -100 -9 -100 -12 0 -21 25 -21 58 l-1 27 -17 -21 c-10 -12 -36 -24 -61
-28 -42 -6 -43 -6 -39 19 3 16 1 25 -7 25 -14 0 -23 -34 -17 -62 2 -11 13 -18
28 -18 32 0 42 -27 18 -45 -27 -21 -34 -18 -47 15 -6 17 -17 30 -23 30 -7 0
-19 12 -26 28 -8 15 -21 37 -29 50 -11 18 -11 24 -2 30 10 7 10 14 0 35 -15
34 -35 34 -48 0 -6 -17 -13 -23 -20 -16 -11 11 -2 43 12 43 12 0 11 37 -1 45
-5 3 -10 15 -10 26 0 14 -7 19 -25 19 -26 0 -34 -15 -12 -23 9 -3 9 -9 -1 -27
-11 -19 -11 -25 2 -39 9 -10 16 -25 16 -34 0 -9 4 -18 10 -22 11 -7 -32 -92
-57 -112 -10 -7 -29 -18 -42 -24 -23 -9 -23 -10 -5 -24 24 -18 2 -20 -26 -3
-16 10 -24 10 -40 0 -28 -17 -48 -15 -72 8 -19 17 -19 20 -5 20 9 0 17 -4 17
-10 0 -5 11 -10 25 -10 14 0 25 5 25 10 0 6 -9 10 -20 10 -25 0 -59 28 -71 58
-11 27 -29 29 -29 2 0 -11 -4 -20 -10 -20 -5 0 -10 9 -10 19 0 11 5 23 10 26
6 3 10 24 10 46 0 21 -4 39 -10 39 -5 0 -10 9 -10 20 0 25 16 26 29 3 9 -17
10 -17 17 2 10 24 49 65 64 65 5 0 10 5 10 10 0 19 -22 10 -51 -21 -16 -17
-34 -29 -41 -27 -8 3 -2 14 17 31 17 15 35 31 40 36 13 11 155 9 174 -4z m151
5 c0 -5 -4 -10 -10 -10 -5 0 -10 5 -10 10 0 6 5 10 10 10 6 0 10 -4 10 -10z
m75 0 c-3 -5 -15 -10 -25 -10 -10 0 -22 5 -25 10 -4 6 7 10 25 10 18 0 29 -4
25 -10z m-805 -89 c0 -10 9 -26 20 -36 23 -20 26 -45 8 -63 -21 -21 -28 -13
-28 33 0 25 -4 45 -10 45 -12 0 -12 -4 -10 -87 1 -63 -15 -93 -26 -48 -8 33 5
156 18 172 13 16 28 7 28 -16z m707 -132 c7 -15 19 -32 27 -38 12 -10 12 -16
0 -40 -12 -25 -19 -28 -70 -29 -67 -2 -96 17 -69 44 9 9 19 13 23 9 4 -4 1
-10 -5 -12 -7 -3 -13 -9 -13 -14 0 -18 26 -7 47 21 32 40 39 60 19 60 -9 0
-16 7 -16 16 0 25 43 12 57 -17z m-62 -28 c3 -5 1 -12 -5 -16 -5 -3 -10 1 -10
9 0 18 6 21 15 7z m236 -14 c-13 -13 -26 -3 -16 12 3 6 11 8 17 5 6 -4 6 -10
-1 -17z m33 -21 c-3 -14 -11 -26 -16 -26 -5 0 -7 6 -4 13 3 6 9 20 12 30 10
27 16 13 8 -17z m-134 -32 c0 -8 -7 -14 -15 -14 -17 0 -18 2 -9 24 7 18 24 12
24 -10z m-433 -28 c-6 -19 -57 -19 -73 1 -12 17 -13 17 -14 1 0 -21 -30 -24
-30 -4 0 18 20 22 77 17 27 -2 43 -7 40 -15z m-177 -2 c0 -9 -7 -14 -17 -12
-25 5 -28 28 -4 28 12 0 21 -6 21 -16z m47 -10 c-9 -9 -28 6 -21 18 4 6 10 6
17 -1 6 -6 8 -13 4 -17z m168 17 c3 -6 -3 -15 -14 -20 -16 -9 -18 -8 -14 9 6
21 18 26 28 11z m89 -30 c13 -11 17 -11 22 3 7 17 24 12 24 -7 0 -29 -35 -35
-78 -15 -24 10 -40 23 -37 29 8 13 48 7 69 -10z m86 11 c0 -13 -12 -22 -22
-16 -10 6 -1 24 13 24 5 0 9 -4 9 -8z m40 -7 c0 -8 -4 -15 -10 -15 -5 0 -10 7
-10 15 0 8 5 15 10 15 6 0 10 -7 10 -15z m150 5 c0 -8 -52 -21 -59 -15 -1 2
-1 7 2 12 7 10 57 13 57 3z m50 1 c0 -6 -4 -13 -10 -16 -5 -3 -10 1 -10 9 0 9
5 16 10 16 6 0 10 -4 10 -9z m-137 -8 c-7 -2 -19 -2 -25 0 -7 3 -2 5 12 5 14
0 19 -2 13 -5z m-403 -38 c0 -8 -7 -15 -15 -15 -16 0 -20 12 -8 23 11 12 23 8
23 -8z m105 -1 c0 -5 -19 -10 -42 -12 -40 -3 -59 11 -30 21 20 7 72 0 72 -9z
m260 5 c10 -15 -1 -23 -20 -15 -9 3 -13 10 -10 16 8 13 22 13 30 -1z m-425 -3
c0 -11 -19 -15 -25 -6 -3 5 1 10 9 10 9 0 16 -2 16 -4z m210 -6 c0 -5 -2 -10
-4 -10 -3 0 -8 5 -11 10 -3 6 -1 10 4 10 6 0 11 -4 11 -10z m270 6 c0 -11 -19
-15 -25 -6 -3 5 1 10 9 10 9 0 16 -2 16 -4z m50 -6 c0 -5 -4 -10 -10 -10 -5 0
-10 5 -10 10 0 6 5 10 10 10 6 0 10 -4 10 -10z m50 6 c0 -3 -4 -8 -10 -11 -5
-3 -10 -1 -10 4 0 6 5 11 10 11 6 0 10 -2 10 -4z"/>
<path d="M1340 1757 c0 -7 11 -20 25 -27 17 -9 24 -19 19 -29 -11 -29 -9 -46
6 -46 9 0 14 8 13 20 -1 11 3 23 10 27 14 9 -1 27 -42 51 -24 14 -31 15 -31 4z"/>
<path d="M1315 1658 c3 -7 19 -22 35 -33 17 -11 30 -23 30 -27 0 -5 9 -8 20
-8 11 0 20 3 20 8 -1 14 -30 46 -36 39 -4 -3 -18 3 -32 13 -28 23 -44 26 -37
8z"/>
<path d="M1287 1572 c-20 -22 -14 -32 14 -25 21 6 23 11 11 31 -7 10 -12 8
-25 -6z"/>
<path d="M1490 1336 c0 -14 5 -26 10 -26 6 0 10 9 10 19 0 11 -4 23 -10 26 -6
4 -10 -5 -10 -19z"/>
<path d="M1388 1304 c-5 -4 -8 -20 -8 -36 0 -32 -16 -38 -25 -8 -11 34 -28 23
-20 -12 4 -18 8 -46 9 -63 1 -17 6 -30 14 -30 7 0 17 -7 22 -15 5 -8 10 -12
12 -10 19 30 27 50 18 50 -5 0 -10 -5 -10 -11 0 -5 -4 -7 -10 -4 -13 8 -13 72
1 77 6 2 9 18 7 37 -2 18 -6 29 -10 25z"/>
<path d="M1490 1264 c0 -14 4 -23 10 -19 6 3 10 15 10 26 0 10 -4 19 -10 19
-5 0 -10 -12 -10 -26z"/>
<path d="M1430 1010 c0 -24 25 -27 34 -4 9 23 8 24 -14 24 -13 0 -20 -7 -20
-20z"/>
<path d="M1080 855 c0 -8 -4 -15 -10 -15 -15 0 -12 -26 5 -40 9 -7 19 -9 23
-5 4 4 1 10 -5 12 -15 5 -17 33 -3 33 6 0 10 7 10 15 0 8 -4 15 -10 15 -5 0
-10 -7 -10 -15z"/>
<path d="M911 804 c-1 -18 26 -37 34 -24 3 5 0 10 -9 10 -8 0 -17 6 -19 13 -4
7 -6 8 -6 1z"/>
<path d="M1040 780 c0 -5 7 -10 15 -10 8 0 15 5 15 10 0 6 -7 10 -15 10 -8 0
-15 -4 -15 -10z"/>
<path d="M1050 736 c0 -18 57 -82 65 -74 4 4 -2 17 -14 29 -12 13 -21 31 -21
41 0 10 -7 18 -15 18 -8 0 -15 -6 -15 -14z"/>
<path d="M1360 912 c0 -9 40 -35 46 -29 3 2 2 12 -2 21 -6 16 -44 23 -44 8z"/>
<path d="M1550 851 c0 -6 5 -13 10 -16 6 -3 10 1 10 9 0 9 -4 16 -10 16 -5 0
-10 -4 -10 -9z"/>
<path d="M1270 790 c0 -3 6 -12 13 -19 10 -11 10 -14 0 -18 -24 -9 -13 -22 17
-21 36 1 54 20 45 47 -4 14 -14 19 -40 18 -19 -1 -35 -4 -35 -7z"/>
<path d="M1316 685 c4 -8 8 -15 10 -15 2 0 4 7 4 15 0 8 -4 15 -10 15 -5 0 -7
-7 -4 -15z"/>
<path d="M910 2225 c-7 -8 -22 -15 -34 -15 -23 0 -76 -47 -76 -67 0 -6 14 -17
30 -25 24 -10 30 -18 25 -35 -3 -12 1 -28 10 -37 8 -8 15 -21 15 -28 0 -16 67
-84 75 -76 3 2 -6 18 -20 34 -14 16 -24 36 -22 44 1 8 -8 23 -21 34 -17 14
-21 21 -12 30 8 8 14 6 21 -7 6 -9 15 -15 20 -11 12 7 -29 52 -59 65 -30 12
-25 43 8 47 14 2 33 11 42 19 14 13 20 13 33 3 8 -7 15 -18 15 -25 0 -7 7 -18
15 -25 12 -10 15 -10 15 4 0 23 16 20 37 -8 15 -18 26 -23 46 -19 24 5 27 10
27 44 0 22 -4 39 -10 39 -5 0 -10 -9 -10 -20 0 -21 -33 -29 -45 -10 -3 6 -16
10 -29 10 -12 0 -33 11 -46 25 -27 29 -33 30 -50 10z"/>
<path d="M1224 2225 c-37 -16 -52 -45 -30 -61 10 -7 16 -26 16 -48 0 -20 5
-36 11 -36 5 0 8 4 5 9 -3 4 6 19 19 31 18 17 25 19 25 9 0 -8 9 -20 20 -27
17 -10 25 -9 45 4 14 9 25 21 25 28 1 6 14 -4 30 -23 15 -18 33 -30 39 -27 7
4 11 -1 11 -13 0 -12 7 -21 15 -21 10 0 15 10 15 28 0 15 5 33 11 39 7 7 9 19
5 29 -5 14 -9 13 -27 -10 -24 -30 -59 -35 -59 -8 0 10 5 23 10 28 8 8 0 10
-25 9 -21 -1 -41 -10 -49 -20 -20 -28 -46 -12 -46 28 0 20 -7 41 -17 50 -16
13 -22 14 -49 2z m36 -29 c0 -18 -15 -36 -31 -36 -18 0 -26 20 -12 33 7 8 43
10 43 3z"/>
<path d="M1344 2215 c-19 -29 -14 -43 8 -22 9 9 25 13 41 10 30 -6 37 11 10
21 -10 3 -23 9 -30 12 -6 3 -19 -6 -29 -21z"/>
<path d="M1137 2214 c-8 -8 3 -34 14 -34 5 0 9 9 9 20 0 19 -11 26 -23 14z"/>
<path d="M765 2120 c3 -5 10 -10 16 -10 5 0 9 5 9 10 0 6 -7 10 -16 10 -8 0
-12 -4 -9 -10z"/>
<path d="M730 2100 c0 -5 5 -10 10 -10 6 0 10 5 10 10 0 6 -4 10 -10 10 -5 0
-10 -4 -10 -10z"/>
<path d="M959 2094 c-10 -12 -10 -20 -1 -35 16 -24 15 -29 -3 -29 -16 0 -19
-9 -9 -34 9 -24 37 -20 29 4 -5 14 -2 20 9 20 20 0 20 5 1 34 -14 21 -14 24 0
30 9 3 13 10 10 16 -9 14 -21 12 -36 -6z"/>
<path d="M1823 2087 c-10 -13 -24 -26 -31 -28 -9 -3 3 -21 31 -52 25 -26 48
-47 51 -47 3 0 -2 16 -11 36 -14 28 -15 37 -4 43 15 10 11 63 -5 68 -7 2 -20
-7 -31 -20z"/>
<path d="M1245 2080 c-4 -6 5 -10 20 -10 15 0 24 4 20 10 -3 6 -12 10 -20 10
-8 0 -17 -4 -20 -10z"/>
<path d="M1660 2080 c0 -5 7 -10 15 -10 8 0 15 5 15 10 0 6 -7 10 -15 10 -8 0
-15 -4 -15 -10z"/>
<path d="M740 2073 c-20 -7 -40 -33 -40 -52 0 -12 3 -11 13 3 8 10 25 20 40
21 33 4 49 14 42 26 -7 10 -31 11 -55 2z"/>
<path d="M1185 2050 c-8 -26 13 -53 36 -47 10 3 27 -2 39 -10 25 -17 38 -10
21 11 -9 11 -8 15 3 19 18 7 56 -3 56 -14 0 -14 50 -10 66 5 16 17 19 36 4 36
-5 0 -10 -4 -10 -9 0 -21 -35 -20 -64 3 l-32 24 -27 -24 c-35 -30 -40 -30 -57
1 -16 30 -27 32 -35 5z"/>
<path d="M736 1995 c-26 -28 -46 -32 -46 -10 0 8 -4 15 -10 15 -22 0 -8 -37
25 -65 19 -17 35 -35 35 -41 0 -6 10 -24 21 -38 17 -21 24 -25 30 -14 5 8 -1
22 -17 39 -15 16 -21 29 -16 33 6 4 14 2 17 -4 4 -6 16 -8 28 -4 19 6 20 5 8
-10 -12 -14 -11 -16 8 -16 22 0 29 24 11 35 -8 5 -8 11 -1 19 14 17 1 29 -16
15 -9 -8 -13 -8 -13 0 0 6 11 18 25 27 l25 17 -26 13 c-38 20 -62 17 -88 -11z
m54 2 c0 -14 -48 -63 -57 -60 -19 7 -16 20 9 43 18 17 48 27 48 17z"/>
<path d="M1313 1983 c-18 -6 -16 -23 1 -23 17 0 30 16 19 23 -5 2 -14 2 -20 0z"/>
<path d="M860 1970 c0 -5 5 -10 10 -10 6 0 10 -6 10 -13 0 -13 39 -41 47 -34
5 6 -50 67 -61 67 -3 0 -6 -4 -6 -10z"/>
<path d="M970 1927 c-27 -14 -34 -52 -10 -52 10 0 14 8 12 23 -4 25 13 30 22
7 3 -8 12 -12 19 -9 8 3 17 -2 21 -11 3 -9 10 -13 16 -10 15 10 12 25 -7 32
-10 3 -25 12 -33 19 -13 10 -20 11 -40 1z"/>
<path d="M1532 1894 c4 -21 22 -23 26 -1 2 10 -3 17 -13 17 -10 0 -15 -6 -13
-16z"/>
<path d="M1568 1856 c-18 -13 -25 -36 -10 -36 4 0 15 12 25 25 19 27 12 32
-15 11z"/>
<path d="M1120 413 c0 -5 16 -19 34 -33 19 -14 32 -28 29 -32 -2 -5 -110 -8
-239 -8 -138 0 -234 -4 -234 -9 0 -5 10 -11 23 -13 14 -2 22 -10 22 -23 0 -13
-8 -21 -22 -23 -22 -3 -33 -22 -13 -22 6 0 10 -7 10 -16 0 -9 9 -18 20 -21 11
-3 20 -9 20 -14 0 -5 8 -9 17 -9 13 0 10 7 -12 30 l-29 30 37 0 c34 0 37 -2
37 -30 0 -58 19 -29 22 33 l3 62 68 3 c62 3 69 1 74 -18 7 -26 19 -26 26 1 9
33 42 20 42 -16 0 -26 -4 -30 -29 -33 -16 -2 -32 2 -37 9 -10 17 -23 4 -16
-16 4 -10 19 -15 43 -15 27 0 37 -5 41 -20 10 -39 22 -19 21 35 -2 60 13 88
34 67 10 -10 10 -17 0 -33 -11 -18 -11 -23 5 -34 10 -8 20 -9 21 -4 2 5 19 9
38 9 31 0 34 -3 34 -30 0 -58 19 -29 22 33 l3 62 48 0 c59 0 67 -19 9 -23 -40
-3 -43 -5 -40 -30 3 -23 8 -27 42 -30 28 -2 40 -9 43 -23 11 -39 23 -17 23 40
0 33 5 63 10 66 27 17 2 25 -73 25 l-83 0 -39 40 c-37 38 -55 49 -55 33z
m-302 -116 c4 -21 -27 -35 -38 -17 -12 19 0 42 19 38 9 -2 17 -11 19 -21z
m387 -2 c0 -13 -8 -21 -24 -23 -28 -4 -46 11 -37 33 9 25 61 16 61 -10z m128
-24 c5 -1 5 -5 2 -11 -8 -13 -52 -13 -59 -1 -7 11 12 19 34 15 8 -1 19 -3 23
-3z"/>
<path d="M1770 414 c0 -3 14 -19 30 -34 17 -15 30 -31 30 -34 0 -3 -85 -6
-190 -6 -120 0 -190 -4 -190 -10 0 -5 23 -10 50 -10 38 0 50 -4 50 -15 0 -10
-10 -15 -32 -15 -25 0 -29 -3 -20 -12 14 -14 16 -48 3 -48 -6 0 -17 10 -25 22
-11 15 -19 19 -26 12 -17 -17 17 -54 51 -54 26 0 29 3 29 30 0 17 5 30 10 30
6 0 10 -18 10 -41 0 -67 23 -42 24 26 1 58 2 60 29 63 22 3 30 -1 34 -17 7
-27 19 -27 26 -1 3 11 12 20 21 20 12 0 16 -10 16 -35 0 -32 -2 -35 -30 -35
-16 0 -30 5 -30 10 0 6 -4 10 -10 10 -5 0 -10 -9 -10 -20 0 -17 7 -20 40 -20
33 0 40 -3 40 -20 0 -11 6 -20 14 -20 11 0 14 14 13 63 l-2 62 53 3 c42 2 52
0 52 -12 0 -11 -9 -16 -29 -16 -31 0 -66 -30 -43 -37 6 -3 12 -11 12 -20 0
-19 29 -48 38 -38 4 4 1 10 -5 12 -7 3 -13 18 -13 34 0 22 5 29 20 29 17 0 20
-7 20 -40 0 -30 4 -40 16 -40 14 0 16 8 11 55 -4 39 -2 59 8 69 11 11 6 20
-34 60 -44 43 -61 54 -61 40z"/>
<path d="M873 275 c-7 -8 -13 -18 -13 -22 0 -15 47 -63 61 -63 8 1 3 10 -13
25 -37 32 -37 55 1 55 17 0 33 5 36 10 10 16 -58 11 -72 -5z"/>
</g>
</svg>
